<svg viewBox="0 0 1024 1024" xmlns="http://www.w3.org/2000/svg" width="1024" height="1024">
  <defs>
    <linearGradient id="glass" x1="156" y1="104" x2="868" y2="924" gradientUnits="userSpaceOnUse">
      <stop offset="0%" stop-color="#FFFFFF"/>
      <stop offset="48%" stop-color="#F7F2EA"/>
      <stop offset="100%" stop-color="#E5DCCC"/>
    </linearGradient>
    <radialGradient id="highlight" cx="0" cy="0" r="1" gradientTransform="matrix(520 560 -560 520 320 220)" gradientUnits="userSpaceOnUse">
      <stop offset="0%" stop-color="#FFFFFF" stop-opacity="0.96"/>
      <stop offset="100%" stop-color="#FFFFFF" stop-opacity="0"/>
    </radialGradient>
    <linearGradient id="face" x1="370" y1="318" x2="654" y2="706" gradientUnits="userSpaceOnUse">
      <stop offset="0%" stop-color="#4A453D"/>
      <stop offset="100%" stop-color="#292620"/>
    </linearGradient>
    <filter id="softShadow" x="-12%" y="-12%" width="124%" height="130%" color-interpolation-filters="sRGB">
      <feDropShadow dx="0" dy="24" stdDeviation="34" flood-color="#2C241A" flood-opacity="0.18"/>
      <feDropShadow dx="0" dy="4" stdDeviation="8" flood-color="#2C241A" flood-opacity="0.12"/>
    </filter>
    <filter id="nodeShadow" x="-80%" y="-80%" width="260%" height="260%" color-interpolation-filters="sRGB">
      <feDropShadow dx="0" dy="10" stdDeviation="12" flood-color="#3C3328" flood-opacity="0.16"/>
    </filter>
  </defs>
  <rect x="72" y="72" width="880" height="880" rx="232" fill="url(#glass)" filter="url(#softShadow)"/>
  <rect x="92" y="92" width="840" height="840" rx="214" fill="url(#highlight)"/>
  <rect x="91" y="91" width="842" height="842" rx="216" fill="none" stroke="#FFFFFF" stroke-width="22" stroke-opacity="0.72"/>
  <rect x="111" y="111" width="802" height="802" rx="196" fill="none" stroke="#9B8D78" stroke-width="14" stroke-opacity="0.26"/>
  <path d="M248 512H374" stroke="#3D3932" stroke-width="68" stroke-linecap="round"/>
  <path d="M650 512H776" stroke="#3D3932" stroke-width="68" stroke-linecap="round" opacity="0.74"/>
  <path d="M630 436L736 330" stroke="#3D3932" stroke-width="62" stroke-linecap="round" opacity="0.74"/>
  <path d="M630 588L736 694" stroke="#3D3932" stroke-width="62" stroke-linecap="round" opacity="0.74"/>
  <rect x="360" y="324" width="304" height="376" rx="70" fill="url(#face)"/>
  <g stroke="#F8F3EA" stroke-width="34" stroke-linecap="round" opacity="0.92">
    <path d="M434 430H590"/>
    <path d="M434 512H590"/>
    <path d="M434 594H530"/>
  </g>
  <g filter="url(#nodeShadow)">
    <circle cx="234" cy="512" r="58" fill="#F59E0B"/>
    <circle cx="234" cy="512" r="58" fill="none" stroke="#FFF6E2" stroke-width="20"/>
    <circle cx="768" cy="304" r="58" fill="#10B981"/>
    <circle cx="768" cy="304" r="58" fill="none" stroke="#ECFFF8" stroke-width="20"/>
    <circle cx="794" cy="512" r="58" fill="#6E6252"/>
    <circle cx="794" cy="512" r="58" fill="none" stroke="#F9F5ED" stroke-width="20"/>
    <circle cx="768" cy="720" r="58" fill="#F59E0B"/>
    <circle cx="768" cy="720" r="58" fill="none" stroke="#FFF6E2" stroke-width="20"/>
  </g>
</svg>
